<svg id="Layer_1" data-name="Layer 1" xmlns="http://www.w3.org/2000/svg" viewBox="0 0 1053.17 1053.17"><defs><style>.cls-1{fill:#393053;}.cls-2{fill:#2c253f;}.cls-3{fill:#868394;}</style></defs><path class="cls-1" d="M193.52,769.83c-134.37-184-94.15-442,89.82-576.41s442-94.15,576.41,89.82,94.15,442-89.82,576.41S327.89,953.8,193.52,769.83ZM837.17,951.71C1072,780.21,1123.31,450.82,951.81,216S450.92-70.14,216.1,101.36-70,602.25,101.46,837.07,602.35,1123.21,837.17,951.71Z"/><circle class="cls-1" cx="526.63" cy="823.04" r="150"/><circle class="cls-2" cx="808.62" cy="618.18" r="150"/><circle class="cls-1" cx="700.91" cy="286.66" r="150"/><circle class="cls-3" cx="352.34" cy="286.68" r="150"/><circle class="cls-2" cx="244.66" cy="618.21" r="150"/><path class="cls-3" d="M203.56,270A412,412,0,0,1,670.34,139.87l.43.13C570.54,62.69,463.09,25.37,329,38.52l-.21.09C114.64,125.19-14.8,340.14,1.35,564,30.23,432.24,99,341.48,203.56,270Z"/><path class="cls-2" d="M183.47,755.52a412,412,0,0,1,19.84-485.16l.25-.37C99.06,341.42,30.36,432.07,1.43,563.66c0,.07,0,.15,0,.22,16.19,231,181.34,420.84,400,474.18C284.83,970.21,219.5,877,183.47,755.52Z"/><path class="cls-1" d="M638.37,923.66A412,412,0,0,1,183.74,755.87l-.27-.35c36,121.36,101.25,214.52,217.66,282.36l.22,0c224.32,55.2,455.1-43.3,573.07-234.26C873.86,893.59,765,926.93,638.37,923.66Z"/><path class="cls-2" d="M928.76,186.51C983.14,310,981.15,423.78,938.84,543.19h0A412,412,0,0,1,638.78,923.51l-.41.15c126.54,3.27,235.31-30,335.79-119.76l.12-.19C1096,607.51,1073.75,357.72,928.76,186.51Z"/><path class="cls-1" d="M670.75,140h0A412,412,0,0,1,938.82,542.77v.44c42.28-119.31,44.31-233-9.93-356.36l-.14-.18C780.09,10.41,536.14-45.81,328.65,38.56,462.9,25.3,570.44,62.62,670.75,140Z"/></svg>