<svg id="Layer_1" data-name="Layer 1" xmlns="http://www.w3.org/2000/svg" viewBox="0 0 1052.84 653.76"><defs><style>.cls-1{fill:#868394;}</style></defs><path class="cls-1" d="M41.41,301A81.22,81.22,0,0,1,20,294.34c-8.14-3.7-20-40.67-20-51,0-3.7.74-7.39,2.22-8.87,1.48-2.22,3-2.22,5.18-1.48,13.31,5.91,28.84,10.35,43.63,13.31C75.43,122.77,111.67,0,130.9,0,145.69,0,196,19.23,196,30.32a4.07,4.07,0,0,1-2.22,3.7c-3,4.44-5.91,7.39-8.87,12.57C164.18,84.31,139.77,166.4,119.81,250c37-3.7,86.52-11.84,115.37-11.84C259.58,117.59,295.08,0,313.57,0c14.79,0,65.08,19.23,65.08,30.32a4.07,4.07,0,0,1-2.22,3.7c-3,4.44-6.66,7.39-8.87,12.57C346.11,85.05,321,170.1,301.74,255.14a30,30,0,0,1,7.39,12.58c2.22,8.13.74,11.83-9.61,11.83h-3.7c-17.75,79.87-30.32,156-30.32,188.58,0,5.92-2.22,8.88-8.88,8.88-17.75,0-48.07-16.27-48.81-32.54,0-38.46,7.4-96.14,18.49-157.53-37,5.92-82.83,13.32-118.33,16.27-14.79,71-25.14,135.34-25.14,164.92,0,5.92-2.22,8.88-8.87,8.88-17.75,0-48.08-16.27-48.82-32.54C25.14,409,31.8,356.46,41.41,301Z"/><path class="cls-1" d="M446.68,398.62c.74-1.48.74-3,1.48-5.18C426,438.55,398.61,477,365.33,477c-28.1,0-54.72-28.84-52.51-50.29,1.48-9.61,2.22-18.49,3.7-28.1,10.36-69.52,31.8-148.65,57-207.08,3-5.91,6.65-9.61,11.09-9.61,14.05,0,38.46,13.31,47.33,21.45,7.4,5.91-.74,15.53-3.7,22.92C406.75,284,386.78,357.94,376.43,411.93c-3.7,17,1.47,26.62,9.61,26.62,35.5,0,87.27-162,99.1-196.72,5.92-17.75,11.83-34.76,18.49-50.29,3-5.91,7.39-9.61,11.09-9.61,14,0,38.46,13.31,47.33,21.45,8.14,5.91-.74,15.53-3,22.92C534,291.38,512.5,377.17,502.89,431.16c-2.22,11.09,4.44,11.09,11.09,5.17,44.37-45.11,78.39-131.64,97.62-181.93,5.18-12.57,23.67-5.17,19.23,7.4C611.6,311.35,547.26,477,483.66,477c-25.14,0-42.89-26.63-40.68-50.29C444.46,417.11,445.94,408.23,446.68,398.62Z"/><path class="cls-1" d="M612.34,477c-29.58,0-46.59-19.23-49.55-45.85-8.88-80.61,32.54-208.56,105.75-247.75,11.84-6.66,25.15-5.18,39.2,0,12.57,4.44,24.41,11.83,37,17.75a83,83,0,0,1,3.7-9.62c2.21-5.91,6.65-9.61,10.35-9.61,14.79,0,38.46,13.31,48.07,21.45,5.18,3.69,3,9.61,0,14.79a78.49,78.49,0,0,0-6.66,18.49C783.91,288.42,769.86,343.15,759.51,389L758,395.66c39.2-36.24,75.43-81.35,98.36-141.26,4.44-12.57,23.66-5.17,18.49,6.66-28.11,74.69-76.18,127.94-125,168.62-11.09,48.07-23.66,96.14-39.93,142-17.75,48.81-42.16,82.09-99.84,82.09-17.75,0-37-8.13-48.07-23.67-21.45-30.32-9.61-71.73,14.05-97.62,26.62-31.06,68.78-51,100.58-73.21,5.92-20.71,11.83-42.15,17.75-63.6C673,440,644.88,477,612.34,477ZM639.7,580.55c8.88-25.89,18.49-56.95,28.1-90.23-33.28,22.93-90.22,54-88,101.32.74,12.57,8.13,27.36,22.92,27.36C615.3,619,630.83,607.17,639.7,580.55ZM624.17,403.79c-.74,8.14-2.22,34.76,9.62,34.76,35.49,0,83.56-162,95.4-196.72,2.22-6.65,4.43-13.31,6.65-19.23A20.8,20.8,0,0,0,718.09,213C667.8,213,628.61,340.19,624.17,403.79Z"/><path class="cls-1" d="M795.75,412.67c11.09-18.49,30.32-25.15,51-27.37,16.27-2.21,33.28-2.21,47.34-5.17-6.66-44.38-57.69-71.74-57.69-128.68,0-47.33,40.68-75.44,81.35-75.44,26.63,0,60.64,37.72,60.64,64.34,0,15.53-16.27,42.9-26.62,42.9-16.27,0-39.2-11.1-39.2-18.49a3.84,3.84,0,0,1,1.48-3c12.58,0,22.93-20,22.93-34,0-8.87-3.7-16.27-11.83-16.27-18.49,0-26.63,31.8-26.63,45.11,0,39.2,39.94,67.3,55.47,100.58,40.67-22.92,64.34-58.42,79.13-102.8,3.7-12.57,22.93-5.91,19.23,6.66-18.49,56.21-48.07,92.44-91.7,116.11,8.87,65.08-61.39,104.28-118.33,104.28C795,481.45,776.52,442.25,795.75,412.67Zm39.93-5.18c-32.54,8.14-22.19,54,12.57,42.16,20.71-7.4,39.2-28.11,45.12-48.07C877.84,405.27,852.69,403.05,835.68,407.49Z"/></svg>